<?xml version="1.0" standalone="no"?><!DOCTYPE svg PUBLIC "-//W3C//DTD SVG 1.1//EN" "http://www.w3.org/Graphics/SVG/1.1/DTD/svg11.dtd"><svg t="1617966404638" class="icon" viewBox="0 0 1024 1024" version="1.1" xmlns="http://www.w3.org/2000/svg" p-id="1826" width="128" height="128" xmlns:xlink="http://www.w3.org/1999/xlink"><defs><style type="text/css"></style></defs><path d="M342.812002 254.962079s52.525167-16.776433 94.598001-0.614843c0 0 116.820187 50.768472 142.555763 37.066255 0 0 47.518587-42.951182-21.519509-88.098232 0 0-162.75775-68.423253-194.993094-194.202582 0 0-14.931904-29.863807-23.978881 18.533128a89.951544 89.951544 0 0 0 13.175209 61.13297s-75.186527-21.343839-17.566945 43.302521c0 0-66.578723-0.966182 8.344299 47.606422 0 0-74.396014 12.736035 3.776893 44.093033 0 0-62.011317 39.789131-4.391736 31.181328z m-1.66886 704.434513c-3.864728 70.531286 50.944142 27.140931 50.944142 27.140931 15.634581 67.896244 57.707416 9.398316 57.707416 9.398315 36.97842 64.646359 58.058755-2.635042 58.058754-2.635041 53.491349-138.691034 63.065334-237.680772 63.065335-237.680772 3.513389-63.855847 37.241924-74.659518 37.241924-74.659519 193.587739-103.11797 157.663335-293.719328 157.663335-293.719328-21.256004-133.333116 87.483388-174.088429 87.483389-174.088429a336.793478 336.793478 0 0 0-53.842688-3.952563c-21.343839-36.714916-54.106192-33.201527-54.106192-33.201527-48.133431 3.601224-132.542603 110.583922-132.542603 110.583922-48.572604 55.599382-90.381934 31.444832-90.381935 31.444832-119.718733-63.592343-170.223701-48.660439-170.223701-48.660439-122.44161 32.938023-213.087048-3.601224-213.087049-3.601224-115.239162-18.708797 31.532667 51.734654 31.532667 51.734655-78.96342 27.228765 65.700376 44.356537 65.700376 44.356537-93.895323 55.335878 39.789131 42.687677 39.789132 42.687678-90.469769 52.173828 46.728075 35.046056 46.728075 35.046056-62.362656 67.105732 45.059215 27.580104 45.059215 27.580104-58.234424 81.247123 34.079874 32.498849 34.079874 32.498849-34.782552 80.105271 41.985 18.884466 41.985 18.884467-44.532207 73.693336 40.579644 22.749194 40.579644 22.749194-31.620502 83.530826 33.465031 31.796171 33.465031 31.796171-28.194947 25.032897-28.019278 95.652018-28.019278 95.652018 12.472531 60.430292-215.89776 206.323774-215.89776 206.323775-55.775052 51.998159 22.222186 51.383315 22.222186 51.383315-31.796171 68.247583 44.795711 32.938023 44.795711 32.938023z m414.140739-743.784471s18.796632-4.655241 12.82387 12.472531c0 0-17.479111 6.060596-12.82387-12.472531z" p-id="1827" fill="#2c2c2c" data-spm-anchor-id="a313x.7781069.0.i0" class=""></path></svg>