<?xml version="1.0" encoding="UTF-8"?>
<svg width="34px" height="34px" viewBox="0 0 34 34" version="1.1" xmlns="http://www.w3.org/2000/svg" xmlns:xlink="http://www.w3.org/1999/xlink">
    <!-- Generator: Sketch 43 (38999) - http://www.bohemiancoding.com/sketch -->
    <title>Shape</title>
    <desc>Created with Sketch.</desc>
    <defs></defs>
    <g id="Page-1" stroke="none" stroke-width="1" fill="none" fill-rule="evenodd">
        <g id="28" transform="translate(-653.000000, -473.000000)" fill="#FFFFFF">
            <g id="Full-Size" transform="translate(630.000000, 450.000000)">
                <path d="M27.8571429,44.8571429 L23,44.8571429 L23,57 L35.1428571,57 L35.1428571,52.1428571 L27.8571429,52.1428571 L27.8571429,44.8571429 L27.8571429,44.8571429 Z M23,35.1428571 L27.8571429,35.1428571 L27.8571429,27.8571429 L35.1428571,27.8571429 L35.1428571,23 L23,23 L23,35.1428571 L23,35.1428571 Z M52.1428571,52.1428571 L44.8571429,52.1428571 L44.8571429,57 L57,57 L57,44.8571429 L52.1428571,44.8571429 L52.1428571,52.1428571 L52.1428571,52.1428571 Z M44.8571429,23 L44.8571429,27.8571429 L52.1428571,27.8571429 L52.1428571,35.1428571 L57,35.1428571 L57,23 L44.8571429,23 L44.8571429,23 Z" id="Shape"></path>
            </g>
        </g>
    </g>
</svg>