<?xml version="1.0" encoding="UTF-8"?>
<svg width="40px" height="40px" viewBox="0 0 40 40" version="1.1" xmlns="http://www.w3.org/2000/svg" xmlns:xlink="http://www.w3.org/1999/xlink">
    <!-- Generator: Sketch 43 (38999) - http://www.bohemiancoding.com/sketch -->
    <title>Combined Shape</title>
    <desc>Created with Sketch.</desc>
    <defs></defs>
    <g id="Page-1" stroke="none" stroke-width="1" fill="none" fill-rule="evenodd">
        <g id="3" transform="translate(-90.000000, -969.000000)" fill="#FFFFFF">
            <g id="Button" transform="translate(60.000000, 949.000000)">
                <path d="M57.4778082,60 L68.0027084,60 C69.1084602,60 70,59.1057821 70,58.0027084 L70,21.9972916 C70,20.8915398 69.1057821,20 68.0027084,20 L31.9972916,20 C30.8915398,20 30,20.8942179 30,21.9972916 L30,58.0027084 C30,59.1084602 30.8942179,60 31.9972916,60 L51.340316,60 L51.3465625,44.4835938 L46.13875,44.4617188 L46.141875,38.5226563 L51.3465625,38.5070313 C51.335625,36.9257813 51.33875,35.3429688 51.3434375,33.7617188 C51.354375,31.8476563 51.895,29.8632813 53.185625,28.4085938 C54.5465625,26.8335938 56.6559375,26.1054688 58.6934375,26.0476563 C60.4028125,26.0226563 62.1153125,26.0960938 63.8153125,26.2757813 L63.816875,31.7210938 C62.679375,31.7226563 61.5403125,31.7226563 60.4028125,31.7195313 C58.491875,31.746875 57.559375,32.4109375 57.4825,34.3867188 L57.47,38.5085938 L63.5325,38.5101563 L62.7309375,44.4882813 L57.47,44.4820313 L57.4778082,60 Z" id="Combined-Shape"></path>
            </g>
        </g>
    </g>
</svg>