<?xml version="1.0" encoding="UTF-8"?>
<svg width="64px" height="64px" viewBox="0 0 64 64" version="1.1" xmlns="http://www.w3.org/2000/svg" xmlns:xlink="http://www.w3.org/1999/xlink">
    <!-- Generator: Sketch 43 (38999) - http://www.bohemiancoding.com/sketch -->
    <title>Fill 1</title>
    <desc>Created with Sketch.</desc>
    <defs></defs>
    <g id="Page-1" stroke="none" stroke-width="1" fill="none" fill-rule="evenodd">
        <g id="8" transform="translate(-626.000000, -794.000000)" fill="#AAA6A2">
            <g id="Info" transform="translate(30.000000, 600.000000)">
                <path d="M628,252 C613.664,252 602,240.336 602,226 C602,211.664 613.664,200 628,200 C642.336,200 654,211.664 654,226 C654,240.336 642.336,252 628,252 M628,194 C610.326,194 596,208.328 596,226 C596,243.672 610.326,258 628,258 C645.674,258 660,243.672 660,226 C660,208.328 645.674,194 628,194 M628,230 C625.792,230 624,228.208 624,226 C624,223.79 625.792,222 628,222 C630.208,222 632,223.79 632,226 C632,228.208 630.208,230 628,230 M640,212 C639.798,212 639.602,212.032 639.42,212.086 L625.094,216.43 C621.908,217.394 619.394,219.91 618.428,223.094 L614.086,237.418 C614.03,237.602 614,237.796 614,238 C614,239.106 614.896,240 616,240 C616.202,240 616.398,239.968 616.582,239.914 L630.906,235.57 C634.092,234.606 636.606,232.09 637.572,228.906 L641.914,214.582 C641.97,214.398 642,214.204 642,214 C642,212.894 641.104,212 640,212" id="Fill-1"></path>
            </g>
        </g>
    </g>
</svg>