<?xml version="1.0" encoding="UTF-8"?>
<svg width="60px" height="64px" viewBox="0 0 60 64" version="1.1" xmlns="http://www.w3.org/2000/svg" xmlns:xlink="http://www.w3.org/1999/xlink">
    <!-- Generator: Sketch 43 (38999) - http://www.bohemiancoding.com/sketch -->
    <title>Fill 1</title>
    <desc>Created with Sketch.</desc>
    <defs></defs>
    <g id="Page-1" stroke="none" stroke-width="1" fill="none" fill-rule="evenodd">
        <g id="8" transform="translate(-626.000000, -645.000000)" fill="#AAA6A2">
            <g id="Info" transform="translate(30.000000, 600.000000)">
                <path d="M602,103 C602,95.062 607.58,88.202 615.64,84.974 C618.572,87.502 622.14,89 626,89 C629.86,89 633.428,87.502 636.36,84.974 C644.42,88.202 650,95.062 650,103 L602,103 Z M626,51 C632.504,51 638,58.328 638,67 C638,75.672 632.504,83 626,83 C619.496,83 614,75.672 614,67 C614,58.328 619.496,51 626,51 L626,51 Z M640.376,80.198 C642.64,76.518 644,71.958 644,67 C644,54.85 635.942,45 626,45 C616.058,45 608,54.85 608,67 C608,71.958 609.36,76.518 611.622,80.198 C602.32,84.612 596,93.158 596,103 L596,105 C596,107.208 597.79,109 600,109 L652,109 C654.208,109 656,107.208 656,105 L656,103 C656,93.158 649.68,84.612 640.376,80.198 L640.376,80.198 Z" id="Fill-1"></path>
            </g>
        </g>
    </g>
</svg>