<?xml version="1.0" encoding="UTF-8"?>
<svg width="34px" height="34px" viewBox="0 0 34 34" version="1.1" xmlns="http://www.w3.org/2000/svg" xmlns:xlink="http://www.w3.org/1999/xlink">
    <!-- Generator: Sketch 43 (38999) - http://www.bohemiancoding.com/sketch -->
    <title>Shape</title>
    <desc>Created with Sketch.</desc>
    <defs></defs>
    <g id="Page-1" stroke="none" stroke-width="1" fill="none" fill-rule="evenodd">
        <g id="17" transform="translate(-686.000000, -73.000000)" fill="#5A4B41">
            <g id="Headline" transform="translate(0.000000, 40.000000)">
                <path d="M710.2996,54.3836478 L708.763865,54.3836478 L708.219554,53.8587764 C710.124643,51.6426529 711.271584,48.7655803 711.271584,45.6357919 C711.271584,38.6569468 705.614637,33 698.635792,33 C691.656947,33 686,38.6569468 686,45.6357919 C686,52.6146369 691.656947,58.2715838 698.635792,58.2715838 C701.76558,58.2715838 704.642653,57.1246427 706.858776,55.219554 L707.383648,55.7638651 L707.383648,57.2995998 L717.103488,67 L720,64.1034877 L710.2996,54.3836478 L710.2996,54.3836478 Z M698.635792,54.3836478 C693.795312,54.3836478 689.887936,50.4762722 689.887936,45.6357919 C689.887936,40.7953116 693.795312,36.887936 698.635792,36.887936 C703.476272,36.887936 707.383648,40.7953116 707.383648,45.6357919 C707.383648,50.4762722 703.476272,54.3836478 698.635792,54.3836478 L698.635792,54.3836478 Z" id="Shape"></path>
            </g>
        </g>
    </g>
</svg>