<?xml version="1.0" encoding="UTF-8"?>
<svg width="76px" height="96px" viewBox="0 0 76 96" version="1.1" xmlns="http://www.w3.org/2000/svg" xmlns:xlink="http://www.w3.org/1999/xlink">
    <!-- Generator: Sketch 43 (38999) - http://www.bohemiancoding.com/sketch -->
    <title>Shape</title>
    <desc>Created with Sketch.</desc>
    <defs></defs>
    <g id="Page-1" stroke="none" stroke-width="1" fill="none" fill-rule="evenodd">
        <g id="1" transform="translate(-489.000000, -660.000000)" fill="#5A4B41">
            <g id="Icon" transform="translate(185.000000, 299.000000)">
                <g id="Group">
                    <path d="M351.5,456.962025 L313.5,456.962025 C308.2465,456.962025 304,452.706566 304,447.441983 L304,371.281646 C304,366.017062 308.2465,361.761603 313.5,361.761603 L370.5,361.761603 C375.7535,361.761603 380,366.017062 380,371.281646 L380,428.401899 C380,444.148049 367.213,456.962025 351.5,456.962025 L351.5,456.962025 Z M323,437.921941 L351.5,437.921941 C356.744,437.921941 361,433.656962 361,428.401899 L361,380.801688 L323,380.801688 L323,437.921941 L323,437.921941 Z" id="Shape"></path>
                </g>
            </g>
        </g>
    </g>
</svg>