<?xml version="1.0" encoding="UTF-8"?>
<svg width="304px" height="191px" viewBox="0 0 304 191" version="1.1" xmlns="http://www.w3.org/2000/svg" xmlns:xlink="http://www.w3.org/1999/xlink">
    <!-- Generator: Sketch 43 (38999) - http://www.bohemiancoding.com/sketch -->
    <title>Shape</title>
    <desc>Created with Sketch.</desc>
    <defs></defs>
    <g id="Page-1" stroke="none" stroke-width="1" fill="none" fill-rule="evenodd">
        <g id="1" transform="translate(-223.000000, -337.000000)" fill="#FFBF44">
            <g id="Icon" transform="translate(185.000000, 299.000000)">
                <g id="Group">
                    <path d="M313.5,228.481013 L275.5,228.481013 L275.5,209.440928 L313.5,209.440928 C318.744,209.440928 323,205.175949 323,199.920886 L323,85.6803797 C323,69.93423 310.213,57.1202532 294.5,57.1202532 L85.5,57.1202532 C69.787,57.1202532 57,69.93423 57,85.6803797 L57,199.920886 C57,205.175949 61.256,209.440928 66.5,209.440928 L104.5,209.440928 L104.5,228.481013 L66.5,228.481013 C50.787,228.481013 38,215.667036 38,199.920886 L38,85.6803797 C38,59.4336234 59.3085,38.0801688 85.5,38.0801688 L294.5,38.0801688 C320.6915,38.0801688 342,59.4336234 342,85.6803797 L342,199.920886 C342,215.667036 329.213,228.481013 313.5,228.481013 L313.5,228.481013 Z" id="Shape"></path>
                </g>
            </g>
        </g>
    </g>
</svg>