<?xml version="1.0" encoding="UTF-8"?>
<svg width="76px" height="77px" viewBox="0 0 76 77" version="1.1" xmlns="http://www.w3.org/2000/svg" xmlns:xlink="http://www.w3.org/1999/xlink">
    <!-- Generator: Sketch 43 (38999) - http://www.bohemiancoding.com/sketch -->
    <title>Shape</title>
    <desc>Created with Sketch.</desc>
    <defs></defs>
    <g id="Page-1" stroke="none" stroke-width="1" fill="none" fill-rule="evenodd">
        <g id="1" transform="translate(-185.000000, -603.000000)" fill="#5A4B41">
            <g id="Icon" transform="translate(185.000000, 299.000000)">
                <g id="Group">
                    <path d="M66.5,380.801688 L9.5,380.801688 C4.2465,380.801688 0,376.546229 0,371.281646 L0,342.721519 C0,321.720306 17.043,304.64135 38,304.64135 L66.5,304.64135 C71.7535,304.64135 76,308.896809 76,314.161392 L76,371.281646 C76,376.546229 71.7535,380.801688 66.5,380.801688 L66.5,380.801688 Z M19,361.761603 L57,361.761603 L57,323.681435 L38,323.681435 C27.5215,323.681435 19,332.220912 19,342.721519 L19,361.761603 L19,361.761603 Z" id="Shape"></path>
                </g>
            </g>
        </g>
    </g>
</svg>