<?xml version="1.0" standalone="no"?><!DOCTYPE svg PUBLIC "-//W3C//DTD SVG 1.1//EN" "http://www.w3.org/Graphics/SVG/1.1/DTD/svg11.dtd"><svg t="1617627773036" class="icon" viewBox="0 0 1024 1024" version="1.1" xmlns="http://www.w3.org/2000/svg" p-id="1265" xmlns:xlink="http://www.w3.org/1999/xlink" width="200" height="200"><defs><style type="text/css"></style></defs><path d="M863.03 138.67H763.5v39.45h89.67c32.55 0 59.18 26.63 59.18 59.18v624.07c0 32.55-26.63 59.18-59.18 59.18H170.83c-32.55 0-59.18-26.63-59.18-59.18V237.3c0-32.55 26.63-59.18 59.18-59.18h86.96v-39.45h-96.82c-48.82 0-88.77 39.95-88.77 88.77v643.79c0 48.82 39.95 88.77 88.77 88.77h702.07c48.82 0 88.77-39.95 88.77-88.77V227.44c-0.01-48.83-39.95-88.77-88.78-88.77z m-290.76 0H449.02v39.45h123.25v-39.45z" fill="#8a8a8a" p-id="1266"></path><path d="M111.65 401.4h800.7v39.45h-800.7zM346.06 252.79c-10.89 0-19.73-8.83-19.73-19.73V83.73c0-10.89 8.83-19.73 19.73-19.73 10.89 0 19.73 8.83 19.73 19.73v149.33c0 10.89-8.83 19.73-19.73 19.73zM665.64 252.79c-10.89 0-19.73-8.83-19.73-19.73V83.73c0-10.89 8.83-19.73 19.73-19.73 10.89 0 19.73 8.83 19.73 19.73v149.33c-0.01 10.89-8.84 19.73-19.73 19.73zM495.98 584.89c0-10.89 8.83-19.73 19.73-19.73h258.44c10.89 0 19.73 8.83 19.73 19.73 0 10.89-8.83 19.73-19.73 19.73H515.71c-10.9 0-19.73-8.83-19.73-19.73z" fill="#8a8a8a" p-id="1267"></path></svg>