<?xml version="1.0" encoding="UTF-8"?>
<svg width="34px" height="38px" viewBox="0 0 34 38" version="1.1" xmlns="http://www.w3.org/2000/svg" xmlns:xlink="http://www.w3.org/1999/xlink">
    <!-- Generator: Sketch 43 (38999) - http://www.bohemiancoding.com/sketch -->
    <title>Shape</title>
    <desc>Created with Sketch.</desc>
    <defs></defs>
    <g id="Page-1" stroke="none" stroke-width="1" fill="none" fill-rule="evenodd">
        <g id="12" transform="translate(-636.000000, -581.000000)" fill="#AAA6A2">
            <g id="3" transform="translate(60.000000, 579.000000)">
                <path d="M602.444444,22.7777778 L593,22.7777778 L593,32.2222222 L602.444444,32.2222222 L602.444444,22.7777778 L602.444444,22.7777778 Z M600.555556,2 L600.555556,5.77777778 L585.444444,5.77777778 L585.444444,2 L581.666667,2 L581.666667,5.77777778 L579.777778,5.77777778 C577.681111,5.77777778 576.018889,7.47777778 576.018889,9.55555556 L576,36 C576,38.0777778 577.681111,39.7777778 579.777778,39.7777778 L606.222222,39.7777778 C608.3,39.7777778 610,38.0777778 610,36 L610,9.55555556 C610,7.47777778 608.3,5.77777778 606.222222,5.77777778 L604.333333,5.77777778 L604.333333,2 L600.555556,2 L600.555556,2 Z M606.222222,36 L579.777778,36 L579.777778,15.2222222 L606.222222,15.2222222 L606.222222,36 L606.222222,36 Z" id="Shape"></path>
            </g>
        </g>
    </g>
</svg>