<?xml version="1.0" encoding="UTF-8"?>
<svg width="31px" height="36px" viewBox="0 0 31 36" version="1.1" xmlns="http://www.w3.org/2000/svg" xmlns:xlink="http://www.w3.org/1999/xlink">
    <!-- Generator: Sketch 43 (38999) - http://www.bohemiancoding.com/sketch -->
    <title>Shape</title>
    <desc>Created with Sketch.</desc>
    <defs></defs>
    <g id="Page-1" stroke="none" stroke-width="1" fill="none" fill-rule="evenodd">
        <g id="21" transform="translate(-45.000000, -651.000000)" fill="#FFFFFF">
            <g id="Menu" transform="translate(0.000000, 619.000000)">
                <g id="1" transform="translate(30.000000, 20.000000)">
                    <path d="M30.3,48 C32.28,48 33.9,46.38 33.9,44.4 L26.7,44.4 C26.7,46.38 28.32,48 30.3,48 L30.3,48 Z M42,37.2 L42,27.3 C42,21.774 38.166,17.148 33,15.924 L33,14.7 C33,13.206 31.794,12 30.3,12 C28.806,12 27.6,13.206 27.6,14.7 L27.6,15.924 C22.434,17.148 18.6,21.774 18.6,27.3 L18.6,37.2 L15,40.8 L15,42.6 L45.6,42.6 L45.6,40.8 L42,37.2 L42,37.2 Z" id="Shape"></path>
                </g>
            </g>
        </g>
    </g>
</svg>