<?xml version="1.0" encoding="UTF-8"?>
<svg width="36px" height="23px" viewBox="0 0 36 23" version="1.1" xmlns="http://www.w3.org/2000/svg" xmlns:xlink="http://www.w3.org/1999/xlink">
    <!-- Generator: Sketch 43 (38999) - http://www.bohemiancoding.com/sketch -->
    <title>Shape</title>
    <desc>Created with Sketch.</desc>
    <defs></defs>
    <g id="Page-1" stroke="none" stroke-width="1" fill="none" fill-rule="evenodd">
        <g id="21" transform="translate(-42.000000, -758.000000)" fill="#FFFFFF">
            <g id="Menu" transform="translate(0.000000, 619.000000)">
                <g id="2" transform="translate(30.000000, 120.000000)">
                    <path d="M36.5454545,28.8181818 C39.2618182,28.8181818 41.4381818,26.6254545 41.4381818,23.9090909 C41.4381818,21.1927273 39.2618182,19 36.5454545,19 C33.8290909,19 31.6363636,21.1927273 31.6363636,23.9090909 C31.6363636,26.6254545 33.8290909,28.8181818 36.5454545,28.8181818 L36.5454545,28.8181818 Z M23.4545455,28.8181818 C26.1709091,28.8181818 28.3472727,26.6254545 28.3472727,23.9090909 C28.3472727,21.1927273 26.1709091,19 23.4545455,19 C20.7381818,19 18.5454545,21.1927273 18.5454545,23.9090909 C18.5454545,26.6254545 20.7381818,28.8181818 23.4545455,28.8181818 L23.4545455,28.8181818 Z M23.4545455,32.0909091 C19.6418182,32.0909091 12,34.0054545 12,37.8181818 L12,41.9090909 L34.9090909,41.9090909 L34.9090909,37.8181818 C34.9090909,34.0054545 27.2672727,32.0909091 23.4545455,32.0909091 L23.4545455,32.0909091 Z M36.5454545,32.0909091 C36.0709091,32.0909091 35.5309091,32.1236364 34.9581818,32.1727273 C36.8563636,33.5472727 38.1818182,35.3963636 38.1818182,37.8181818 L38.1818182,41.9090909 L48,41.9090909 L48,37.8181818 C48,34.0054545 40.3581818,32.0909091 36.5454545,32.0909091 L36.5454545,32.0909091 Z" id="Shape"></path>
                </g>
            </g>
        </g>
    </g>
</svg>