<?xml version="1.0" encoding="UTF-8"?>
<svg width="34px" height="34px" viewBox="0 0 34 34" version="1.1" xmlns="http://www.w3.org/2000/svg" xmlns:xlink="http://www.w3.org/1999/xlink">
    <!-- Generator: Sketch 43 (38999) - http://www.bohemiancoding.com/sketch -->
    <title>Shape</title>
    <desc>Created with Sketch.</desc>
    <defs></defs>
    <g id="Page-1" stroke="none" stroke-width="1" fill="none" fill-rule="evenodd">
        <g id="21" transform="translate(-43.000000, -1012.000000)" fill="#FFFFFF">
            <g id="Menu" transform="translate(0.000000, 619.000000)">
                <g id="4" transform="translate(30.000000, 380.000000)">
                    <path d="M30,13 C20.616,13 13,20.616 13,30 C13,39.384 20.616,47 30,47 C39.384,47 47,39.384 47,30 C47,20.616 39.384,13 30,13 L30,13 Z M31.7,38.5 L28.3,38.5 L28.3,35.1 L31.7,35.1 L31.7,38.5 L31.7,38.5 Z M31.7,31.7 L28.3,31.7 L28.3,21.5 L31.7,21.5 L31.7,31.7 L31.7,31.7 Z" id="Shape"></path>
                </g>
            </g>
        </g>
    </g>
</svg>