<?xml version="1.0" encoding="UTF-8"?>
<svg width="34px" height="34px" viewBox="0 0 34 34" version="1.1" xmlns="http://www.w3.org/2000/svg" xmlns:xlink="http://www.w3.org/1999/xlink">
    <!-- Generator: Sketch 43 (38999) - http://www.bohemiancoding.com/sketch -->
    <title>Shape</title>
    <desc>Created with Sketch.</desc>
    <defs></defs>
    <g id="Page-1" stroke="none" stroke-width="1" fill="none" fill-rule="evenodd">
        <g id="21" transform="translate(-43.000000, -1112.000000)" fill="#FFFFFF">
            <g id="Menu" transform="translate(0.000000, 619.000000)">
                <g id="5" transform="translate(30.000000, 480.000000)">
                    <path d="M30,13 C20.616,13 13,20.616 13,30 C13,39.384 20.616,47 30,47 C39.384,47 47,39.384 47,30 C47,20.616 39.384,13 30,13 L30,13 Z M31.7,41.9 L28.3,41.9 L28.3,38.5 L31.7,38.5 L31.7,41.9 L31.7,41.9 Z M35.219,28.725 L33.689,30.289 C32.465,31.53 31.7,32.55 31.7,35.1 L28.3,35.1 L28.3,34.25 C28.3,32.38 29.065,30.68 30.289,29.439 L32.397,27.297 C33.026,26.685 33.4,25.835 33.4,24.9 C33.4,23.03 31.87,21.5 30,21.5 C28.13,21.5 26.6,23.03 26.6,24.9 L23.2,24.9 C23.2,21.143 26.243,18.1 30,18.1 C33.757,18.1 36.8,21.143 36.8,24.9 C36.8,26.396 36.188,27.756 35.219,28.725 L35.219,28.725 Z" id="Shape"></path>
                </g>
            </g>
        </g>
    </g>
</svg>