<?xml version="1.0" encoding="UTF-8"?>
<svg width="34px" height="34px" viewBox="0 0 34 34" version="1.1" xmlns="http://www.w3.org/2000/svg" xmlns:xlink="http://www.w3.org/1999/xlink">
    <!-- Generator: Sketch 43 (38999) - http://www.bohemiancoding.com/sketch -->
    <title>Shape</title>
    <desc>Created with Sketch.</desc>
    <defs></defs>
    <g id="Page-1" stroke="none" stroke-width="1" fill="none" fill-rule="evenodd">
        <g id="6" transform="translate(-636.000000, -224.000000)" fill="#AAA6A2">
            <g id="Search" transform="translate(60.000000, 209.000000)">
                <path d="M600.2996,36.3836478 L598.763865,36.3836478 L598.219554,35.8587764 C600.124643,33.6426529 601.271584,30.7655803 601.271584,27.6357919 C601.271584,20.6569468 595.614637,15 588.635792,15 C581.656947,15 576,20.6569468 576,27.6357919 C576,34.6146369 581.656947,40.2715838 588.635792,40.2715838 C591.76558,40.2715838 594.642653,39.1246427 596.858776,37.219554 L597.383648,37.7638651 L597.383648,39.2995998 L607.103488,49 L610,46.1034877 L600.2996,36.3836478 L600.2996,36.3836478 Z M588.635792,36.3836478 C583.795312,36.3836478 579.887936,32.4762722 579.887936,27.6357919 C579.887936,22.7953116 583.795312,18.887936 588.635792,18.887936 C593.476272,18.887936 597.383648,22.7953116 597.383648,27.6357919 C597.383648,32.4762722 593.476272,36.3836478 588.635792,36.3836478 L588.635792,36.3836478 Z" id="Shape"></path>
            </g>
        </g>
    </g>
</svg>