<?xml version="1.0" encoding="UTF-8"?>
<svg width="130px" height="40px" viewBox="0 0 130 40" version="1.1" xmlns="http://www.w3.org/2000/svg" xmlns:xlink="http://www.w3.org/1999/xlink">
    <!-- Generator: Sketch 43 (38999) - http://www.bohemiancoding.com/sketch -->
    <title>trave</title>
    <desc>Created with Sketch.</desc>
    <defs></defs>
    <g id="Page-1" stroke="none" stroke-width="1" fill="none" fill-rule="evenodd">
        <g id="1" transform="translate(-310.000000, -70.000000)" fill="#5A4B41">
            <g id="Headline" transform="translate(0.000000, 40.000000)">
                <path d="M329.767103,61.3537118 L329.767103,69.0975255 C328.039778,69.6991782 326.128104,70 324.032023,70 C320.635597,70 318.068907,69.1945738 316.331878,67.5836972 C314.594848,65.9728207 313.726346,63.4497988 313.726346,60.014556 L313.726346,45.4585153 L310,45.4585153 L310,37.9184862 L313.726346,37.9184862 L313.726346,30 L324.177584,30 L324.177584,37.9184862 L329.243086,37.9184862 L329.243086,45.4585153 L324.177584,45.4585153 L324.177584,58.4133916 C324.177584,59.2091258 324.264919,59.8253253 324.439592,60.2620087 C324.614266,60.6986921 324.924792,61.0092179 325.371179,61.1935953 C325.817567,61.3779728 326.46773,61.4701601 327.321689,61.4701601 C328.486178,61.4701601 329.301308,61.4313444 329.767103,61.3537118 L329.767103,61.3537118 Z M351.452369,37.6564774 L351.277697,47.9039301 L350.462559,47.845706 C349.336886,47.7292571 348.502348,47.6710335 347.95892,47.6710335 C346.406268,47.6710335 345.159312,47.879668 344.218017,48.2969432 C343.276722,48.7142185 342.592595,49.3595298 342.165615,50.2328967 L342.165615,69.4177584 L331.74349,69.4177584 L331.74349,37.9184862 L341.466925,37.9184862 L341.81627,42.0815138 C342.592596,40.5482699 343.567841,39.3740943 344.742035,38.558952 C345.916228,37.7438096 347.23111,37.3362445 348.686722,37.3362445 C349.812394,37.3362445 350.734268,37.4429878 351.452369,37.6564774 L351.452369,37.6564774 Z M380.590328,66.0262009 C380.803818,67.0839451 381.143456,68.0494862 381.609251,68.922853 L381.609251,69.4177584 L371.216238,69.4177584 C370.886299,68.7384731 370.595182,67.8360076 370.342876,66.7103348 C369.508325,67.758375 368.50882,68.5686531 367.344331,69.1411936 C366.179842,69.7137341 364.685437,70 362.861071,70 C360.959072,70 359.192957,69.6021389 357.562672,68.8064047 C355.932387,68.0106705 354.63206,66.8898665 353.661653,65.4439592 C352.691245,63.998052 352.206049,62.3532358 352.206049,60.5094614 C352.206049,57.2100757 353.423892,54.662794 355.859615,52.86754 C358.295338,51.072286 362.036203,50.1746725 367.082322,50.1746725 L369.789746,50.1746725 L369.789746,48.7190684 C369.789746,47.4575386 369.522888,46.4968495 368.989164,45.8369723 C368.45544,45.1770952 367.596642,44.8471616 366.412745,44.8471616 C365.384113,44.8471616 364.622354,45.0849079 364.127446,45.5604076 C363.632538,46.0359073 363.385088,46.8170737 363.385088,47.9039301 L352.962963,47.9039301 C352.962963,45.8272579 353.535495,43.9883632 354.680576,42.3871907 C355.825657,40.7860182 357.455917,39.5439151 359.571405,38.6608443 C361.686894,37.7777734 364.151692,37.3362445 366.965874,37.3362445 C369.52775,37.3362445 371.813026,37.7680694 373.821769,38.6317322 C375.830513,39.4953949 377.407402,40.7860176 378.552483,42.503639 C379.697564,44.2212604 380.270095,46.3124574 380.270095,48.7772926 L380.270095,61.1499272 C380.270095,63.3430483 380.376839,64.9684566 380.590328,66.0262009 L380.590328,66.0262009 Z M368.144913,61.8340611 C368.892127,61.4556022 369.440399,60.9752576 369.789746,60.3930131 L369.789746,55.7933042 L366.849426,55.7933042 C365.33559,55.7933042 364.253602,56.2154252 363.603429,57.0596798 C362.953256,57.9039344 362.628174,58.9082911 362.628174,60.0727802 C362.628174,60.7714737 362.899884,61.3343016 363.443312,61.7612809 C363.986741,62.1882603 364.656312,62.4017467 365.452046,62.4017467 C366.500086,62.4017467 367.3977,62.2125201 368.144913,61.8340611 L368.144913,61.8340611 Z M410.430212,37.9184862 L400.270095,69.4177584 L393.778101,69.4177584 L389.411289,69.4177584 L379.280285,37.9184862 L390.342876,37.9184862 L394.826136,56.8413392 L399.396733,37.9184862 L410.430212,37.9184862 Z M439.163836,57.1615721 L420.037199,57.1615721 C420.44477,58.558959 421.206528,59.6409472 422.322497,60.4075691 C423.438466,61.1741911 424.821276,61.5574964 426.470969,61.5574964 C427.868356,61.5574964 429.192942,61.324602 430.444768,60.8588064 C431.696594,60.3930108 432.759174,59.6361042 433.632541,58.588064 L438.261362,64.6724891 C437.562668,65.6040803 436.606831,66.4725821 435.393822,67.2780204 C434.180812,68.0834587 432.749483,68.7384739 431.09979,69.2430859 C429.450097,69.7476978 427.674278,70 425.772279,70 C422.39526,70 419.45497,69.301317 416.951318,67.9039301 C414.447667,66.5065432 412.540844,64.6385367 411.230794,62.2998544 C409.920744,59.9611722 409.265729,57.4235945 409.265729,54.6870451 L409.265729,53.6098981 C409.265729,50.5628183 409.828557,47.8117541 410.954229,45.356623 C412.079902,42.9014918 413.797498,40.9510019 416.107068,39.5050946 C418.416638,38.0591873 421.269593,37.3362445 424.66602,37.3362445 C427.616059,37.3362445 430.182748,37.9475921 432.366165,39.1703057 C434.549582,40.3930192 436.228362,42.1591345 437.402555,44.4687045 C438.576749,46.7782745 439.163836,49.5244868 439.163836,52.7074236 L439.163836,57.1615721 Z M424.578683,45.7787482 C423.14248,45.7787482 422.065344,46.2057211 421.347242,47.0596798 C420.629141,47.9136384 420.153648,49.07811 419.92075,50.5531295 L429.00372,50.5531295 L429.00372,49.7088792 C429.081352,47.0887787 427.606355,45.7787482 424.578683,45.7787482 L424.578683,45.7787482 Z" id="trave"></path>
            </g>
        </g>
    </g>
</svg>