<?xml version="1.0" encoding="UTF-8"?>
<svg width="40px" height="33px" viewBox="0 0 40 33" version="1.1" xmlns="http://www.w3.org/2000/svg" xmlns:xlink="http://www.w3.org/1999/xlink">
    <!-- Generator: Sketch 43 (38999) - http://www.bohemiancoding.com/sketch -->
    <title>Imported Layers</title>
    <desc>Created with Sketch.</desc>
    <defs></defs>
    <g id="Page-1" stroke="none" stroke-width="1" fill="none" fill-rule="evenodd">
        <g id="3" transform="translate(-90.000000, -1073.000000)" fill="#FFFFFF">
            <g id="Button" transform="translate(60.000000, 1049.000000)">
                <path d="M70,27.8479926 C68.5282092,28.5006799 66.9466829,28.9419118 65.2867196,29.140199 C66.9806532,28.1245259 68.2822109,26.5164722 68.894821,24.6000143 C67.3087144,25.5404948 65.5527565,26.2233355 63.6834371,26.591474 C62.1866457,24.9965887 60.0535795,24 57.6934087,24 C52.3963358,24 48.5023498,28.9432477 49.699134,34.0765763 C42.879124,33.7343925 36.8318424,30.467139 32.7846084,25.5023259 C30.634748,29.1900093 31.6693146,34.0158878 35.3243637,36.4585033 C33.9791026,36.415945 32.7132327,36.0466614 31.6070994,35.4319521 C31.518166,39.2339512 34.2428493,42.7893795 38.1891266,43.5825282 C37.0341373,43.8966578 35.7690307,43.9686061 34.4831222,43.7227987 C35.5274219,46.9831819 38.5584103,49.3557575 42.1493356,49.4217896 C38.6990625,52.1258618 34.353539,53.3331425 30,52.8201532 C33.6313843,55.148453 37.9452277,56.507264 42.5794986,56.507264 C57.8153582,56.507264 66.423388,43.6380639 65.9048641,32.0961855 C67.5083375,30.9390968 68.8995921,29.4936425 70,27.8479926 L70,27.8479926 Z" id="Imported-Layers"></path>
            </g>
        </g>
    </g>
</svg>